<svg width="160" height="44" viewBox="0 0 160 44" fill="none" xmlns="http://www.w3.org/2000/svg">
<path d="M29.872 35.552C29.872 37.088 29.488 38.496 28.72 39.776C27.952 41.056 26.928 42.08 25.648 42.848C24.368 43.616 22.96 44 21.424 44H9.136C7.6 44 6.17067 43.616 4.848 42.848C3.568 42.08 2.544 41.056 1.776 39.776C1.008 38.496 0.624 37.088 0.624 35.552V9.248C0.624 7.66933 1.008 6.24 1.776 4.96C2.544 3.68 3.568 2.656 4.848 1.888C6.17067 1.12 7.6 0.735996 9.136 0.735996H21.424C22.96 0.735996 24.368 1.12 25.648 1.888C26.928 2.656 27.952 3.68 28.72 4.96C29.488 6.24 29.872 7.66933 29.872 9.248V10.976C29.872 11.7867 29.5733 12.4693 28.976 13.024C28.4213 13.5787 27.7387 13.856 26.928 13.856H25.2C24.3893 13.856 23.6853 13.5787 23.088 13.024C22.5333 12.4693 22.256 11.7867 22.256 10.976V9.248C22.256 8.65066 21.9787 8.352 21.424 8.352H9.136C8.92267 8.352 8.70933 8.43733 8.496 8.608C8.32533 8.77866 8.24 8.992 8.24 9.248V35.552C8.24 35.7653 8.32533 35.9787 8.496 36.192C8.70933 36.3627 8.92267 36.448 9.136 36.448H21.424C21.6373 36.448 21.8293 36.3627 22 36.192C22.1707 35.9787 22.256 35.7653 22.256 35.552V26.976C22.256 26.464 22 26.208 21.488 26.208H16.944C16.1333 26.208 15.4293 25.9307 14.832 25.376C14.2773 24.7787 14 24.0747 14 23.264V21.472C14 20.6613 14.2773 19.9787 14.832 19.424C15.4293 18.8693 16.1333 18.592 16.944 18.592H26.928C27.7387 18.592 28.4213 18.8693 28.976 19.424C29.5733 19.9787 29.872 20.6613 29.872 21.472V35.552ZM58.228 36.832C58.228 38.8373 57.524 40.544 56.116 41.952C54.7507 43.3173 53.0867 44 51.124 44H42.228C40.2653 44 38.58 43.3173 37.172 41.952C35.764 40.544 35.06 38.8373 35.06 36.832V29.856C35.06 28.5333 35.38 27.36 36.02 26.336C36.7027 25.2693 37.5773 24.416 38.644 23.776C39.7107 23.136 40.9053 22.816 42.228 22.816H49.78C49.9933 22.816 50.1853 22.7307 50.356 22.56C50.5693 22.3893 50.676 22.176 50.676 21.92V19.36C50.676 19.104 50.5693 18.8907 50.356 18.72C50.1853 18.5493 49.9933 18.464 49.78 18.464H42.228C41.4173 18.464 40.7133 18.1867 40.116 17.632C39.5613 17.0773 39.284 16.3947 39.284 15.584V13.856C39.284 13.0027 39.5613 12.2987 40.116 11.744C40.7133 11.1467 41.4173 10.848 42.228 10.848H51.124C52.4467 10.848 53.6413 11.168 54.708 11.808C55.7747 12.448 56.628 13.3227 57.268 14.432C57.908 15.4987 58.228 16.6933 58.228 18.016V36.832ZM50.676 35.616V31.2C50.676 30.9867 50.5693 30.7947 50.356 30.624C50.1853 30.4533 49.9933 30.368 49.78 30.368H43.572C43.3587 30.368 43.1453 30.4533 42.932 30.624C42.7613 30.7947 42.676 30.9867 42.676 31.2V35.616C42.676 35.8293 42.7613 36.0213 42.932 36.192C43.1453 36.3627 43.3587 36.448 43.572 36.448H49.78C49.9933 36.448 50.1853 36.3627 50.356 36.192C50.5693 36.0213 50.676 35.8293 50.676 35.616Z" fill="#1C1B1B"/>
<path d="M91.915 35.552C91.915 37.088 91.531 38.496 90.763 39.776C89.995 41.056 88.971 42.08 87.691 42.848C86.411 43.616 85.003 44 83.467 44H66.379C65.5683 44 64.8643 43.7227 64.267 43.168C63.7123 42.5707 63.435 41.8667 63.435 41.056V3.68C63.435 2.82666 63.7123 2.12266 64.267 1.568C64.8643 1.01333 65.5683 0.735996 66.379 0.735996H82.571C84.1497 0.735996 85.5577 1.12 86.795 1.888C88.075 2.656 89.099 3.68 89.867 4.96C90.635 6.24 91.019 7.66933 91.019 9.248V16.864C91.019 18.016 90.8057 19.0827 90.379 20.064C90.1657 20.5333 90.2083 21.0027 90.507 21.472C91.4457 22.88 91.915 24.4587 91.915 26.208V35.552ZM83.467 16.864V9.248C83.467 8.992 83.3603 8.77866 83.147 8.608C82.9763 8.43733 82.7843 8.352 82.571 8.352H71.947C71.3923 8.352 71.115 8.62933 71.115 9.184V16.864C71.115 17.4187 71.3923 17.696 71.947 17.696H82.571C82.7843 17.696 82.9763 17.6107 83.147 17.44C83.3603 17.2693 83.467 17.0773 83.467 16.864ZM84.299 35.552V26.208C84.299 25.6107 84.0217 25.312 83.467 25.312H71.947C71.3923 25.312 71.115 25.5893 71.115 26.144V35.616C71.115 36.1707 71.3923 36.448 71.947 36.448H83.467C83.6803 36.448 83.8723 36.3627 84.043 36.192C84.2137 35.9787 84.299 35.7653 84.299 35.552ZM106.787 4.832C106.787 6.15466 106.296 7.30666 105.315 8.288C104.376 9.22667 103.267 9.696 101.987 9.696C100.664 9.696 99.5118 9.22667 98.5305 8.288C97.5918 7.30666 97.1225 6.15466 97.1225 4.832C97.1225 3.552 97.5918 2.44267 98.5305 1.504C99.5118 0.522664 100.664 0.0319977 101.987 0.0319977C103.267 0.0319977 104.376 0.522664 105.315 1.504C106.296 2.44267 106.787 3.552 106.787 4.832ZM105.763 41.056C105.763 41.8667 105.464 42.5707 104.867 43.168C104.312 43.7227 103.629 44 102.819 44H101.091C100.28 44 99.5758 43.7227 98.9785 43.168C98.4238 42.5707 98.1465 41.8667 98.1465 41.056V14.496C98.1465 13.6853 98.4238 13.0027 98.9785 12.448C99.5758 11.8507 100.28 11.552 101.091 11.552H102.819C103.629 11.552 104.312 11.8507 104.867 12.448C105.464 13.0027 105.763 13.6853 105.763 14.496V41.056ZM130.943 41.056C130.943 41.8667 130.666 42.5707 130.111 43.168C129.556 43.7227 128.874 44 128.063 44H119.103C117.14 44 115.455 43.3173 114.047 41.952C112.682 40.544 111.999 38.8373 111.999 36.832V3.68C111.999 2.82666 112.276 2.12266 112.831 1.568C113.386 1.01333 114.068 0.735996 114.879 0.735996H116.671C117.482 0.735996 118.164 1.01333 118.719 1.568C119.316 2.12266 119.615 2.82666 119.615 3.68V10.08C119.615 10.592 119.892 10.848 120.447 10.848H128.063C128.874 10.848 129.556 11.1467 130.111 11.744C130.666 12.2987 130.943 13.0027 130.943 13.856V15.584C130.943 16.3093 130.666 16.992 130.111 17.632C129.471 18.1867 128.788 18.464 128.063 18.464H120.447C119.892 18.464 119.615 18.7627 119.615 19.36V35.616C119.615 36.1707 119.892 36.448 120.447 36.448H128.063C128.874 36.448 129.556 36.7253 130.111 37.28C130.666 37.8347 130.943 38.5387 130.943 39.392V41.056ZM159.291 24.992C159.291 26.272 158.971 27.4667 158.331 28.576C157.691 29.6427 156.837 30.5173 155.771 31.2C154.704 31.84 153.509 32.16 152.187 32.16H144.635C144.421 32.16 144.208 32.2453 143.995 32.416C143.824 32.544 143.739 32.7147 143.739 32.928V35.616C143.739 35.8293 143.824 36.0213 143.995 36.192C144.208 36.3627 144.421 36.448 144.635 36.448H152.187C152.997 36.448 153.68 36.7253 154.235 37.28C154.832 37.8347 155.131 38.5387 155.131 39.392V41.056C155.131 41.8667 154.832 42.5707 154.235 43.168C153.68 43.7227 152.997 44 152.187 44H143.291C141.328 44 139.643 43.3173 138.235 41.952C136.827 40.544 136.123 38.8373 136.123 36.832V18.016C136.123 16.6933 136.443 15.4987 137.083 14.432C137.765 13.3653 138.64 12.512 139.707 11.872C140.773 11.1893 141.968 10.848 143.291 10.848H152.187C153.509 10.848 154.704 11.1893 155.771 11.872C156.837 12.512 157.691 13.3653 158.331 14.432C158.971 15.4987 159.291 16.6933 159.291 18.016V24.992ZM151.739 23.712V19.36C151.739 19.104 151.632 18.8907 151.419 18.72C151.248 18.5493 151.056 18.464 150.843 18.464H144.635C144.421 18.464 144.208 18.5493 143.995 18.72C143.824 18.8907 143.739 19.104 143.739 19.36V23.712C143.739 23.8827 143.824 24.0533 143.995 24.224C144.208 24.3947 144.421 24.48 144.635 24.48H150.843C151.056 24.48 151.248 24.3947 151.419 24.224C151.632 24.0533 151.739 23.8827 151.739 23.712Z" fill="#FB923C"/>
</svg>
